<svg xmlns="http://www.w3.org/2000/svg" viewBox="0 0 547.4 120" width="547.4" height="120" role="img" aria-label="annbatch">

  <g transform="translate(16,0)">
    <rect x="12" y="18" width="68" height="84" rx="18" fill="#16223D" stroke="none" stroke-width="0"/>
    <rect x="24" y="36" width="44" height="9" rx="4.5" fill="#F4F1E9" opacity="0.92"/>
    <rect x="24" y="64" width="44" height="9" rx="4.5" fill="#F4F1E9" opacity="0.92"/>
    <rect x="24" y="78" width="44" height="9" rx="4.5" fill="#F4F1E9" opacity="0.92"/>
    <rect x="24" y="50" width="62" height="9" rx="4.5" fill="#FF5A3C"/>
    <rect x="91" y="51.0" width="7" height="7" rx="2.2" fill="#FF5A3C" opacity="1.0"/>
    <rect x="101" y="51.0" width="7" height="7" rx="2.2" fill="#FF5A3C" opacity="0.62"/>
    <rect x="111" y="51.0" width="7" height="7" rx="2.2" fill="#FF5A3C" opacity="0.38"/>
  </g>
  <g transform="translate(150,29) scale(0.8009)">
      <path d="M34.19,50.3 Q26.17,50.3 23.0,52.36 Q19.83,54.41 19.83,59.38 Q19.83,63.09 22.02,65.3 Q24.22,67.48 27.98,67.48 Q33.64,67.48 36.77,63.22 Q39.89,58.94 39.89,51.28 L39.89,50.3 L34.19,50.3 Z M54.11,44.78 L54.11,75.98 L39.89,75.98 L39.89,69.88 Q37.31,73.5 33.25,75.45 Q29.2,77.41 24.31,77.41 Q14.98,77.41 9.78,72.47 Q4.59,67.53 4.59,58.7 Q4.59,49.12 10.8,44.56 Q17.0,40.0 29.98,40.0 L39.89,40.0 L39.89,37.61 Q39.89,34.14 37.38,32.36 Q34.86,30.58 29.98,30.58 Q24.86,30.58 20.05,31.88 Q15.23,33.16 10.02,36.0 L10.02,23.78 Q14.75,21.83 19.62,20.91 Q24.52,19.98 29.98,19.98 Q43.31,19.98 48.7,25.41 Q54.11,30.81 54.11,44.78 Z M112.5,40.48 L112.5,75.98 L98.3,75.98 L98.3,42.69 Q98.3,36.72 96.61,34.16 Q94.92,31.59 91.11,31.59 Q87.25,31.59 85.03,35.06 Q82.81,38.53 82.81,44.69 L82.81,75.98 L68.61,75.98 L68.61,21.3 L82.81,21.3 L82.81,29.5 Q84.33,24.95 87.99,22.47 Q91.66,19.98 96.83,19.98 Q104.6,19.98 108.55,25.14 Q112.5,30.28 112.5,40.48 Z M172.71,40.48 L172.71,75.98 L158.5,75.98 L158.5,42.69 Q158.5,36.72 156.82,34.16 Q155.13,31.59 151.32,31.59 Q147.46,31.59 145.24,35.06 Q143.02,38.53 143.02,44.69 L143.02,75.98 L128.82,75.98 L128.82,21.3 L143.02,21.3 L143.02,29.5 Q144.54,24.95 148.19,22.47 Q151.86,19.98 157.04,19.98 Q164.8,19.98 168.75,25.14 Q172.71,30.28 172.71,40.48 Z" fill="#16223D"/>
      <path d="M222.12,48.78 Q222.12,40.88 219.47,36.39 Q216.85,31.89 212.21,31.89 Q207.57,31.89 204.88,36.39 Q202.19,40.88 202.19,48.78 Q202.19,56.7 204.88,61.2 Q207.57,65.69 212.21,65.69 Q216.85,65.69 219.47,61.2 Q222.12,56.7 222.12,48.78 Z M202.19,29.06 Q204.83,24.52 208.32,22.25 Q211.82,19.98 216.21,19.98 Q225.93,19.98 231.18,27.41 Q236.43,34.83 236.43,48.69 Q236.43,62.36 231.24,69.89 Q226.07,77.41 216.69,77.41 Q211.77,77.41 208.1,75.02 Q204.44,72.61 202.19,67.88 L202.19,75.98 L187.94,75.98 L187.94,0.0 L202.19,0.0 L202.19,29.06 Z M275.01,50.3 Q266.99,50.3 263.82,52.36 Q260.65,54.41 260.65,59.38 Q260.65,63.09 262.84,65.3 Q265.04,67.48 268.8,67.48 Q274.46,67.48 277.59,63.22 Q280.71,58.94 280.71,51.28 L280.71,50.3 L275.01,50.3 Z M294.93,44.78 L294.93,75.98 L280.71,75.98 L280.71,69.88 Q278.13,73.5 274.07,75.45 Q270.02,77.41 265.13,77.41 Q255.8,77.41 250.6,72.47 Q245.41,67.53 245.41,58.7 Q245.41,49.12 251.62,44.56 Q257.82,40.0 270.8,40.0 L280.71,40.0 L280.71,37.61 Q280.71,34.14 278.2,32.36 Q275.68,30.58 270.8,30.58 Q265.68,30.58 260.87,31.88 Q256.05,33.16 250.84,36.0 L250.84,23.78 Q255.57,21.83 260.45,20.91 Q265.34,19.98 270.8,19.98 Q284.13,19.98 289.52,25.41 Q294.93,30.81 294.93,44.78 Z M334.71,5.77 L334.71,21.3 L353.42,21.3 L353.42,32.28 L334.71,32.28 L334.71,58.16 Q334.71,61.83 336.49,63.42 Q338.28,65.0 342.43,65.0 L353.42,65.0 L353.42,75.98 L341.4,75.98 Q329.1,75.98 324.76,72.06 Q320.42,68.12 320.42,57.48 L320.42,32.28 L306.45,32.28 L306.45,21.3 L320.42,21.3 L320.42,5.77 L334.71,5.77 Z M413.04,73.2 Q409.42,75.3 405.26,76.34 Q401.12,77.41 396.34,77.41 Q383.7,77.41 376.56,69.8 Q369.43,62.17 369.43,48.69 Q369.43,35.16 376.61,27.52 Q383.79,19.88 396.43,19.88 Q400.82,19.88 404.9,20.91 Q408.98,21.94 413.04,24.08 L413.04,37.17 Q409.92,34.48 406.18,33.05 Q402.45,31.59 398.43,31.59 Q391.45,31.59 387.68,36.05 Q383.93,40.48 383.93,48.69 Q383.93,56.89 387.68,61.3 Q391.45,65.69 398.43,65.69 Q402.59,65.69 406.2,64.3 Q409.81,62.89 413.04,60.06 L413.04,73.2 Z M473.73,40.48 L473.73,75.98 L459.53,75.98 L459.53,42.69 Q459.53,36.78 457.84,34.25 Q456.15,31.7 452.34,31.7 Q448.44,31.7 446.23,35.14 Q444.04,38.58 444.04,44.69 L444.04,75.98 L429.84,75.98 L429.84,0.0 L444.04,0.0 L444.04,29.5 Q445.56,24.95 449.22,22.47 Q452.89,19.98 458.06,19.98 Q465.83,19.98 469.78,25.14 Q473.73,30.28 473.73,40.48 Z" fill="#FF5A3C"/>
  </g>
</svg>
